<svg width="982" height="982" viewBox="0 0 982 982" fill="none" xmlns="http://www.w3.org/2000/svg">
<g opacity="0.5" clip-path="url(#clip0_898_285)">
<path d="M8.29504 367.496C24.2103 358.821 40.5822 347.603 44.957 342.484C45.0702 341.408 45.1719 340.204 45.2812 338.894C47.2087 316.166 50.7934 274.072 140.414 235.843C142.883 230.705 146.262 225.824 150.662 221.723C161.479 211.644 175.634 208.777 190.519 213.631C203.109 217.743 211.107 223.873 216.214 230.11C231.765 231.242 243.363 235.509 253.753 239.349C264.553 243.337 273.878 246.781 287.384 246.781C293.856 246.781 301.825 241.492 311.048 235.366C326.16 225.333 344.969 212.845 372.222 212.845C402.886 212.845 424.076 222.828 444.572 232.485C472.802 245.786 499.462 258.347 555.745 247.09C623.219 233.597 730.953 259.162 770.659 282.983C807.094 304.846 848.005 370.59 892.256 478.397C920.32 546.761 941.097 611.387 946.168 627.5L977.341 658.661C981.839 663.163 983.225 669.91 980.862 675.817L946.928 760.655C944.509 766.695 938.661 770.655 932.157 770.655H881.255C872.468 770.655 865.347 763.536 865.347 754.748C865.347 745.961 872.466 738.84 881.255 738.84H882.317V718.724C831.679 712.493 768.725 678.965 734.741 647.677C730.272 643.565 725.859 639.74 721.482 636.138C716.731 645.297 710.74 653.245 704.863 660.976C690.321 680.116 676.584 698.196 676.584 737.779C676.584 747.839 668.866 751.819 662.664 755.016C659.731 756.527 655.686 758.532 650.642 760.975C642.067 765.128 633.491 769.15 633.491 769.15C631.38 770.139 629.074 770.653 626.738 770.653H541.901C533.115 770.653 525.993 763.534 525.993 754.746C525.993 745.959 533.113 738.838 541.901 738.838H574.372C569.778 722.516 559.515 703.267 548.796 683.184C542.236 670.892 535.37 658.017 529.223 644.731C524.054 659.595 516.802 675.213 506.904 691.42V725.782C506.904 737.77 502.235 749.042 493.762 757.511C485.286 765.985 474.016 770.653 462.031 770.653H372.226C363.44 770.653 356.318 763.534 356.318 754.746C356.318 745.959 363.438 738.838 372.226 738.838H388.387L374.353 612.544C368.622 609.609 360.409 605.087 350.844 598.899C342.223 625.814 313.133 697.744 243.664 718.339L178.158 767.468C175.406 769.533 172.057 770.649 168.614 770.649H66.8085C58.0223 770.649 50.9008 763.53 50.9008 754.742C50.9008 745.956 58.0204 738.834 66.8085 738.834H83.7767C96.8495 738.834 112.92 707.042 128.462 676.291C143.147 647.238 161.263 611.401 186.614 579.47C186.622 556.694 187.99 494.951 201.828 465.234H134.678C129.816 465.234 125.222 463.011 122.205 459.2C113.551 448.266 94.9124 448.266 83.7767 448.266C43.3497 448.266 26.23 441.091 23.2073 439.65C19.2563 437.767 16.2527 434.339 14.9082 430.172L0.766968 386.338C-1.57678 379.069 1.586 371.156 8.29504 367.496ZM576.865 668.209C590.059 692.931 602.65 716.546 607.052 738.842H623.186C631.015 735.148 639.351 731.132 645.005 728.305C647.253 684.21 665.046 660.792 679.53 641.731C686.08 633.112 691.821 625.532 695.285 617.154C646.963 586.86 601.085 584.023 542.236 584.012C546.78 611.757 562.014 640.379 576.865 668.209ZM156.859 690.649C147.657 708.854 139.242 725.502 130.293 738.842H163.315L226.943 691.121C228.56 689.911 230.388 689.017 232.337 688.491C300.555 670.054 322.612 582.232 322.823 581.375C323.022 580.54 323.302 579.748 323.621 578.977C300.173 559.615 275.027 532.455 258.87 496.708C250.815 494.378 239.032 490.242 228.403 483.733C221.709 503.298 218.059 547.973 218.46 584.9C218.501 588.655 217.21 592.309 214.816 595.203C189.787 625.505 172.291 660.115 156.859 690.649ZM42.669 412.597C49.589 414.254 62.7462 416.458 83.7805 416.458C97.0279 416.458 123.21 416.458 141.569 433.426H203.18C214.924 433.426 225.119 425.07 227.423 413.554L234.464 378.342C236.188 369.729 244.568 364.153 253.181 365.862C261.795 367.586 267.384 375.966 265.661 384.58L258.621 419.792C255.987 432.951 248.847 444.305 239.013 452.376C245.603 458.051 259.879 464.586 273.876 467.741C278.993 468.878 283.222 472.467 285.181 477.329C315.12 551.69 394.729 587.1 395.508 587.439C400.754 589.704 404.379 594.609 405.008 600.286L420.403 738.844H462.036C465.525 738.844 468.805 737.484 471.271 735.016C473.738 732.553 475.096 729.275 475.096 725.784V686.878C475.096 683.861 475.953 680.91 477.568 678.361C545.094 571.839 481.945 497.09 479.07 493.787C473.278 487.214 473.886 477.191 480.445 471.372C487.02 465.541 497.074 466.139 502.901 472.71C503.773 473.692 524.372 497.224 534.63 536.517C535.934 541.514 537.094 546.926 538.028 552.695C539.271 552.383 540.568 552.199 541.905 552.199C621.592 552.199 683.616 557.369 756.289 624.272C797.654 662.355 863.074 687.939 898.223 687.939C907.009 687.939 914.13 695.059 914.13 703.847V738.842H921.388L947.428 673.744L920.909 647.226C919.069 645.385 917.707 643.122 916.946 640.634C892.661 561.319 816.097 347.348 754.297 310.268C723.369 291.712 623.259 266.03 561.988 278.29C495.407 291.602 461.198 275.488 431.015 261.27C412.102 252.359 395.771 244.664 372.226 244.664C354.573 244.664 341.979 253.022 328.648 261.876C316.263 270.096 303.459 278.598 287.388 278.598C268.195 278.598 254.668 273.604 242.736 269.197C236.702 266.97 231.098 264.933 224.968 263.525C223.163 276.537 216.966 286.646 215.94 288.244C212.892 292.993 207.731 295.599 202.47 295.599C199.54 295.599 196.578 294.792 193.933 293.094C186.538 288.353 184.355 278.56 189.1 271.166C191.292 267.628 195.145 258.462 193.041 252.706C191.404 248.218 185.398 245.427 180.644 243.876C175.887 242.32 173.948 243.569 172.504 244.858C168.141 248.751 166.6 256.498 167.078 258.83C169.207 267.353 164.026 275.99 155.503 278.123C148.851 279.782 142.152 276.984 138.508 271.634C80.5795 299.658 78.4178 324.601 76.9794 341.581C76.7569 344.203 76.5459 346.677 76.1796 349.153C75.4699 353.946 73.6805 366.012 35.02 388.907L42.669 412.597Z" fill="white"/>
</g>
<path d="M106 342.5L249.5 317.5" stroke="#909090" stroke-width="2"/>
<path d="M185.5 388L249.5 316.5" stroke="#909090" stroke-width="2"/>
<path d="M250 316L344 320.5" stroke="#909090" stroke-width="2"/>
<path d="M249.5 317.5L290 422" stroke="#909090" stroke-width="2"/>
<path d="M344 316L365.5 382" stroke="#909090" stroke-width="2"/>
<path d="M290.5 422L366.5 382.5" stroke="#909090" stroke-width="2"/>
<path d="M290.5 422L353.5 491.5" stroke="#909090" stroke-width="2"/>
<path d="M353.5 491.5L409 457.5" stroke="#909090" stroke-width="2"/>
<path d="M409 457.5L366 382.5" stroke="#909090" stroke-width="2"/>
<path d="M457 398.5L365.5 381.5" stroke="#909090" stroke-width="2"/>
<path d="M448.5 310L344 321" stroke="#909090" stroke-width="2"/>
<path d="M518.5 345L448 310.5" stroke="#909090" stroke-width="2"/>
<path d="M457.5 399.5L449 310.5" stroke="#909090" stroke-width="2"/>
<path d="M366 382.5L447.5 310.5" stroke="#909090" stroke-width="2"/>
<path d="M408 457.5L457.5 401" stroke="#909090" stroke-width="2"/>
<path d="M408 527V458" stroke="#909090" stroke-width="2"/>
<path d="M408.5 525.5L353 492" stroke="#909090" stroke-width="2"/>
<path d="M474 525L407.5 456.5" stroke="#909090" stroke-width="2"/>
<path d="M475 525H409" stroke="#909090" stroke-width="2"/>
<path d="M457.5 619L407 526.5" stroke="#909090" stroke-width="2"/>
<path d="M457.5 618L473.5 527" stroke="#909090" stroke-width="2"/>
<path d="M518 344.5L457.5 400" stroke="#909090" stroke-width="2"/>
<path d="M552 468L457.5 400" stroke="#909090" stroke-width="2"/>
<path d="M629 315L518.5 345" stroke="#909090" stroke-width="2"/>
<path d="M596.5 371L519 344" stroke="#909090" stroke-width="2"/>
<path d="M596.5 372.5L628.5 316.5" stroke="#909090" stroke-width="2"/>
<path d="M553 468L598 372.5" stroke="#909090" stroke-width="2"/>
<path d="M552 468L621 474.5" stroke="#909090" stroke-width="2"/>
<path d="M597 371.5L637.5 433.5" stroke="#909090" stroke-width="2"/>
<path d="M637.5 434L620.5 473.5" stroke="#909090" stroke-width="2"/>
<path d="M692.5 333.5L627 317" stroke="#909090" stroke-width="2"/>
<path d="M692 334L598.5 370.5" stroke="#909090" stroke-width="2"/>
<path d="M691.5 334.5L638 433.5" stroke="#909090" stroke-width="2"/>
<path d="M707.5 441L639.5 433.5" stroke="#909090" stroke-width="2"/>
<path d="M707.5 440.5L691.5 333" stroke="#909090" stroke-width="2"/>
<path d="M709.5 441.5L622 475.5" stroke="#909090" stroke-width="2"/>
<path d="M786.5 474L708 439" stroke="#909090" stroke-width="2"/>
<path d="M743 534L709 441.5" stroke="#909090" stroke-width="2"/>
<path d="M788.5 476L743 534.5" stroke="#909090" stroke-width="2"/>
<path d="M828 593.5L742 533.5" stroke="#909090" stroke-width="2"/>
<path d="M828 594L787.5 474.5" stroke="#909090" stroke-width="2"/>
<path d="M106 343.5L185.5 388" stroke="#909090" stroke-width="2"/>
<path d="M106 326L110.592 338.408L123 343L110.592 347.592L106 360L101.408 347.592L89 343L101.408 338.408L106 326Z" fill="white"/>
<path d="M185 370L189.592 382.408L202 387L189.592 391.592L185 404L180.408 391.592L168 387L180.408 382.408L185 370Z" fill="#909090"/>
<path d="M249 299L253.592 311.408L266 316L253.592 320.592L249 333L244.408 320.592L232 316L244.408 311.408L249 299Z" fill="#909090"/>
<path d="M344 303L348.592 315.408L361 320L348.592 324.592L344 337L339.408 324.592L327 320L339.408 315.408L344 303Z" fill="#909090"/>
<path d="M290 404L294.592 416.408L307 421L294.592 425.592L290 438L285.408 425.592L273 421L285.408 416.408L290 404Z" fill="#909090"/>
<path d="M365 365L369.592 377.408L382 382L369.592 386.592L365 399L360.408 386.592L348 382L360.408 377.408L365 365Z" fill="#909090"/>
<path d="M353 474L357.592 486.408L370 491L357.592 495.592L353 508L348.408 495.592L336 491L348.408 486.408L353 474Z" fill="#909090"/>
<path d="M408 440L412.592 452.408L425 457L412.592 461.592L408 474L403.408 461.592L391 457L403.408 452.408L408 440Z" fill="#909090"/>
<path d="M408 508L412.592 520.408L425 525L412.592 529.592L408 542L403.408 529.592L391 525L403.408 520.408L408 508Z" fill="#909090"/>
<path d="M474 508L478.592 520.408L491 525L478.592 529.592L474 542L469.408 529.592L457 525L469.408 520.408L474 508Z" fill="#909090"/>
<path d="M457 601L461.592 613.408L474 618L461.592 622.592L457 635L452.408 622.592L440 618L452.408 613.408L457 601Z" fill="#909090"/>
<path d="M457 382L461.592 394.408L474 399L461.592 403.592L457 416L452.408 403.592L440 399L452.408 394.408L457 382Z" fill="#909090"/>
<path d="M448 292L452.592 304.408L465 309L452.592 313.592L448 326L443.408 313.592L431 309L443.408 304.408L448 292Z" fill="#909090"/>
<path d="M597 353L601.592 365.408L614 370L601.592 374.592L597 387L592.408 374.592L580 370L592.408 365.408L597 353Z" fill="#909090"/>
<path d="M518 326L522.592 338.408L535 343L522.592 347.592L518 360L513.408 347.592L501 343L513.408 338.408L518 326Z" fill="#909090"/>
<path d="M552 450L556.592 462.408L569 467L556.592 471.592L552 484L547.408 471.592L535 467L547.408 462.408L552 450Z" fill="#909090"/>
<path d="M621 457L625.592 469.408L638 474L625.592 478.592L621 491L616.408 478.592L604 474L616.408 469.408L621 457Z" fill="#909090"/>
<path d="M638 416L642.592 428.408L655 433L642.592 437.592L638 450L633.408 437.592L621 433L633.408 428.408L638 416Z" fill="#909090"/>
<path d="M691 316L695.592 328.408L708 333L695.592 337.592L691 350L686.408 337.592L674 333L686.408 328.408L691 316Z" fill="#909090"/>
<path d="M628 299L632.592 311.408L645 316L632.592 320.592L628 333L623.408 320.592L611 316L623.408 311.408L628 299Z" fill="#909090"/>
<path d="M708 423L712.592 435.408L725 440L712.592 444.592L708 457L703.408 444.592L691 440L703.408 435.408L708 423Z" fill="#909090"/>
<path d="M828 576L832.592 588.408L845 593L832.592 597.592L828 610L823.408 597.592L811 593L823.408 588.408L828 576Z" fill="#909090"/>
<path d="M742 516L746.592 528.408L759 533L746.592 537.592L742 550L737.408 537.592L725 533L737.408 528.408L742 516Z" fill="#909090"/>
<path d="M787 457L791.592 469.408L804 474L791.592 478.592L787 491L782.408 478.592L770 474L782.408 469.408L787 457Z" fill="#909090"/>
<defs>
<clipPath id="clip0_898_285">
<rect width="982" height="982" fill="white" transform="matrix(-1 0 0 1 982 0)"/>
</clipPath>
</defs>
</svg>
